<?xml version="1.0" encoding="UTF-8"?><svg id="Layer_2" xmlns="http://www.w3.org/2000/svg" viewBox="0 0 265.02 149.54"><g id="Layer_1-2"><path d="M110.19,85.38c5.08,6.52,7.62,13.97,7.62,22.34,0,12.08-4.22,21.66-12.66,28.72-8.44,7.07-20.21,10.6-35.31,10.6H2.5V2.5h65.06c14.69,0,26.18,3.37,34.49,10.09,8.3,6.73,12.46,15.85,12.46,27.38,0,8.51-2.23,15.58-6.69,21.21-4.46,5.63-10.4,9.54-17.81,11.74,8.37,1.79,15.1,5.94,20.18,12.46ZM37.71,60.98h23.06c5.77,0,10.19-1.27,13.28-3.81,3.09-2.54,4.63-6.28,4.63-11.22s-1.54-8.72-4.63-11.32c-3.09-2.61-7.51-3.91-13.28-3.91h-23.06v30.27ZM77.34,114.61c3.22-2.68,4.84-6.55,4.84-11.63s-1.68-9.06-5.04-11.94c-3.37-2.88-8-4.32-13.9-4.32h-25.53v31.91h25.94c5.9,0,10.47-1.34,13.69-4.02Z" style="fill:none; stroke:#fff; stroke-miterlimit:10; stroke-width:5px;"/><path d="M221.99,147.04l-48.59-63.83v63.83h-35.21V2.5h35.21v63.42L221.58,2.5h41.39l-56,70.83,58.06,73.71h-43.03Z" style="fill:#eb494d; stroke-width:0px;"/></g></svg>