<?xml version="1.0" standalone="no"?>
<!DOCTYPE svg PUBLIC "-//W3C//DTD SVG 20010904//EN"
 "http://www.w3.org/TR/2001/REC-SVG-20010904/DTD/svg10.dtd">
<svg version="1.0" xmlns="http://www.w3.org/2000/svg"
 width="724.000000pt" height="366.000000pt" viewBox="0 0 724.000000 366.000000"
 preserveAspectRatio="xMidYMid meet">

<g transform="translate(0.000000,366.000000) scale(0.100000,-0.100000)"
fill="#000000" stroke="none">
<path d="M333 3375 c-17 -13 -12 -37 105 -507 67 -271 185 -749 263 -1063 348
-1414 390 -1579 400 -1592 6 -7 18 -13 25 -13 15 0 2338 2231 2346 2252 3 7 3
18 1 25 -5 15 -12 17 -748 228 -599 172 -2244 646 -2327 670 -39 11 -49 11
-65 0z m722 -267 c5 -5 -471 -460 -482 -460 -7 -1 -162 608 -163 638 0 10 632
-165 645 -178z m449 -125 c165 -47 305 -89 309 -93 4 -4 -98 -109 -228 -235
-129 -125 -237 -226 -240 -224 -11 11 -161 639 -153 639 6 0 146 -39 312 -87z
m-311 -250 c43 -174 75 -318 73 -320 -4 -4 -602 165 -624 176 -9 5 7 26 50 66
35 33 141 135 237 227 96 93 177 168 181 168 3 0 41 -142 83 -317z m1067 32
c162 -47 303 -88 313 -93 15 -6 -24 -48 -218 -235 -130 -125 -240 -227 -243
-227 -4 0 -40 134 -80 298 -40 163 -75 307 -78 320 -4 12 -2 22 3 22 4 0 141
-38 303 -85z m-302 -255 c44 -176 77 -320 74 -320 -4 0 -410 116 -567 162
l-70 20 235 229 c129 125 238 228 241 229 4 0 43 -144 87 -320z m1105 24 l307
-88 -197 -191 c-234 -225 -292 -279 -297 -274 -4 5 -156 627 -156 641 0 6 8 8
18 6 9 -3 155 -45 325 -94z m-339 -239 c43 -174 76 -318 73 -321 -7 -8 -633
171 -629 180 3 9 466 456 472 456 3 0 41 -142 84 -315z m-1794 135 c172 -50
315 -92 317 -93 2 -2 -105 -109 -238 -237 -135 -131 -244 -229 -248 -224 -7 7
-161 620 -161 639 0 9 14 6 330 -85z m733 -210 c152 -43 294 -84 316 -90 l41
-11 -163 -157 c-89 -86 -198 -192 -242 -234 l-81 -77 -80 324 c-45 179 -78
325 -74 325 3 0 131 -36 283 -80z m-276 -267 c44 -181 80 -329 79 -330 -2 -3
-640 180 -646 185 -5 4 470 471 480 472 3 0 42 -147 87 -327z m1090 31 c172
-49 312 -92 310 -96 -1 -4 -110 -111 -242 -238 -194 -185 -241 -226 -247 -212
-7 15 -158 628 -158 639 0 3 6 3 13 1 6 -2 153 -45 324 -94z m-322 -268 c41
-170 74 -310 73 -312 -7 -6 -639 182 -640 190 0 5 107 112 238 238 196 188
240 226 246 211 4 -10 41 -157 83 -327z m-1030 -72 c165 -47 301 -87 303 -89
2 -2 -68 -72 -155 -157 -321 -312 -321 -311 -327 -291 -3 10 -37 149 -76 308
-39 160 -73 298 -76 308 -5 15 -2 18 13 13 10 -3 153 -44 318 -92z m524 -779
c-2 -2 -148 37 -323 87 l-318 92 63 60 c35 34 145 140 244 235 l180 174 79
-322 c43 -177 77 -323 75 -326z m247 557 c166 -48 301 -91 300 -97 -1 -12
-455 -451 -464 -448 -6 2 -161 603 -162 626 0 13 21 8 326 -81z m-259 -635 c2
-2 -107 -111 -242 -242 -135 -131 -247 -236 -250 -234 -3 3 -165 655 -165 664
0 3 652 -184 657 -188z"/>
<path d="M3688 1589 c-17 -9 -18 -37 -18 -357 0 -366 1 -372 45 -372 41 0 45
16 45 184 l0 159 42 39 c72 66 155 73 203 16 25 -29 25 -32 25 -202 0 -120 4
-176 12 -184 14 -14 64 -16 72 -4 3 5 6 93 7 195 1 178 0 188 -22 228 -34 61
-68 82 -139 87 -68 5 -106 -7 -162 -51 l-38 -29 0 141 c0 128 -2 141 -19 151
-24 12 -31 12 -53 -1z"/>
<path d="M6042 1568 c-20 -20 -15 -76 7 -88 60 -32 113 34 70 86 -14 17 -61
18 -77 2z"/>
<path d="M3301 1396 c-84 -84 -88 -106 -21 -106 l40 0 0 -175 c0 -185 6 -213
47 -240 34 -23 111 -29 158 -13 35 11 40 17 40 43 l0 30 -64 0 c-90 1 -91 3
-91 197 l0 158 64 0 c70 0 90 12 84 52 -3 21 -8 23 -75 26 l-73 3 0 49 c0 70
-20 66 -109 -24z"/>
<path d="M4298 1369 c-16 -9 -18 -32 -18 -247 0 -250 2 -262 45 -262 41 0 45
16 45 186 l0 162 39 35 c25 22 54 38 78 42 73 12 82 15 88 35 24 76 -95 82
-172 7 l-33 -31 0 32 c0 43 -35 63 -72 41z"/>
<path d="M4750 1364 c-45 -20 -86 -59 -113 -109 -18 -33 -22 -57 -22 -140 0
-85 3 -106 23 -143 30 -55 90 -98 160 -113 138 -28 317 40 258 99 -14 14 -21
15 -63 2 -68 -19 -140 -24 -183 -11 -44 13 -87 56 -99 99 l-10 32 175 0 c211
0 216 2 203 95 -17 126 -107 205 -233 205 -34 -1 -77 -8 -96 -16z m195 -105
c19 -19 37 -49 41 -66 l7 -33 -148 0 -147 0 7 28 c18 74 75 115 153 109 45 -3
59 -9 87 -38z"/>
<path d="M5320 1364 c-45 -20 -86 -59 -113 -109 -18 -33 -22 -57 -22 -140 0
-118 19 -166 86 -215 77 -56 219 -64 313 -18 51 25 66 52 42 76 -14 14 -21 15
-63 2 -68 -19 -140 -24 -183 -11 -44 13 -87 56 -99 99 l-10 32 175 0 c211 0
216 2 203 95 -17 126 -107 205 -233 205 -34 -1 -77 -8 -96 -16z m195 -105 c19
-19 37 -49 41 -66 l7 -33 -148 0 -147 0 7 28 c18 74 75 115 153 109 45 -3 59
-9 87 -38z"/>
<path d="M6052 1364 c-22 -15 -22 -16 -22 -330 l0 -314 -26 -10 c-14 -6 -30
-7 -35 -4 -17 10 -56 -5 -61 -24 -9 -32 10 -50 56 -57 56 -9 109 8 136 42 19
25 20 40 20 359 0 319 -1 334 -19 344 -25 13 -22 13 -49 -6z"/>
<path d="M6341 1358 c-51 -27 -81 -76 -81 -130 0 -84 43 -122 178 -158 45 -12
93 -30 105 -40 19 -15 20 -21 9 -44 -6 -15 -23 -31 -38 -36 -37 -15 -115 -12
-164 5 -57 20 -77 19 -90 -5 -16 -31 3 -56 57 -74 74 -23 118 -29 178 -21 100
12 164 82 150 165 -12 71 -43 95 -171 136 -69 21 -118 42 -121 51 -12 31 11
68 52 81 33 12 54 12 118 2 85 -14 111 -5 105 34 -5 32 -54 50 -153 54 -80 3
-95 1 -134 -20z"/>
<path d="M5777 962 c-37 -41 -11 -102 43 -102 36 0 60 23 60 59 0 54 -68 82
-103 43z"/>
</g>
</svg>
